<svg width="680" height="680" viewBox="0 0 680 680" fill="none" xmlns="http://www.w3.org/2000/svg">
<path d="M200 480C130 440 110 340 150 240C200 130 320 90 420 120C510 150 570 250 555 360C545 420 510 460 470 480" stroke="#1A1A1A" stroke-width="35" stroke-linecap="round"/>
<path d="M245 221C248 291 270 351 295 391" stroke="#1A1A1A" stroke-width="20" stroke-linecap="round"/>
<path d="M340 182C340 262 345 322 350 372" stroke="#1A1A1A" stroke-width="20" stroke-linecap="round"/>
<path d="M435 221C432 291 415 351 400 386" stroke="#1A1A1A" stroke-width="20" stroke-linecap="round"/>
<path d="M357 431C372.617 452 371 470 364 477.5" stroke="#1A1A1A" stroke-width="20" stroke-linecap="round"/>
<path d="M289 466.937C289 422.484 328.188 395.813 357.578 404.703C390.888 413.594 406.563 453.601 390.888 484.717C377.172 511.389 337.985 511.389 314.472 493.608" stroke="#1A1A1A" stroke-width="20" stroke-linecap="round"/>
<path d="M195 490C230 540 310 555 390 548C450 542 490 520 475 485" stroke="#1A1A1A" stroke-width="35" stroke-linecap="round"/>
</svg>
