<svg width="1024" height="1024" viewBox="0 0 1024 1024" fill="none" xmlns="http://www.w3.org/2000/svg">
<mask id="mask0_16_2" style="mask-type:luminance" maskUnits="userSpaceOnUse" x="100" y="100" width="824" height="824">
<path d="M924 512L923.92 615.21L923.67 648.16L923.27 672.08L922.7 691.52L921.96 708.17L921.07 722.86L920 736.08L918.77 748.14L917.38 759.25L915.81 769.57L914.08 779.2L912.17 788.25L910.1 796.76L907.84 804.8L905.41 812.41L902.8 819.63L900.01 826.48L897.04 833L893.87 839.2L890.51 845.11L886.96 850.73L883.2 856.09L879.24 861.19L875.06 866.05L870.67 870.67L866.05 875.06L861.19 879.24L856.09 883.2L850.73 886.96L845.11 890.51L839.2 893.87L833 897.04L826.48 900.01L819.63 902.8L812.41 905.41L804.8 907.84L796.76 910.1L788.25 912.17L779.2 914.08L769.57 915.81L759.25 917.38L748.14 918.77L736.08 920L722.86 921.07L708.17 921.96L691.52 922.7L672.08 923.27L648.16 923.67L615.21 923.92L512 924L408.79 923.92L375.84 923.67L351.92 923.27L332.48 922.7L315.83 921.96L301.14 921.07L287.92 920L275.86 918.77L264.75 917.38L254.43 915.81L244.8 914.08L235.75 912.17L227.24 910.1L219.2 907.84L211.59 905.41L204.37 902.8L197.52 900.01L191 897.04L184.8 893.87L178.89 890.51L173.27 886.96L167.91 883.2L162.81 879.24L157.95 875.06L153.33 870.67L148.94 866.05L144.76 861.19L140.8 856.09L137.04 850.73L133.49 845.11L130.13 839.2L126.96 833L123.99 826.48L121.2 819.63L118.59 812.41L116.16 804.8L113.9 796.76L111.83 788.25L109.92 779.2L108.19 769.57L106.62 759.25L105.23 748.14L104 736.08L102.93 722.86L102.04 708.17L101.3 691.52L100.73 672.08L100.33 648.16L100.08 615.21L100 512L100.08 408.79L100.33 375.84L100.73 351.92L101.3 332.48L102.04 315.83L102.93 301.14L104 287.92L105.23 275.86L106.62 264.75L108.19 254.43L109.92 244.8L111.83 235.75L113.9 227.24L116.16 219.2L118.59 211.59L121.2 204.37L123.99 197.52L126.96 191L130.13 184.8L133.49 178.89L137.04 173.27L140.8 167.91L144.76 162.81L148.94 157.95L153.33 153.33L157.95 148.94L162.81 144.76L167.91 140.8L173.27 137.04L178.89 133.49L184.8 130.13L191 126.96L197.52 123.99L204.37 121.2L211.59 118.59L219.2 116.16L227.24 113.9L235.75 111.83L244.8 109.92L254.43 108.19L264.75 106.62L275.86 105.23L287.92 104L301.14 102.93L315.83 102.04L332.48 101.3L351.92 100.73L375.84 100.33L408.79 100.08L512 100L615.21 100.08L648.16 100.33L672.08 100.73L691.52 101.3L708.17 102.04L722.86 102.93L736.08 104L748.14 105.23L759.25 106.62L769.57 108.19L779.2 109.92L788.25 111.83L796.76 113.9L804.8 116.16L812.41 118.59L819.63 121.2L826.48 123.99L833 126.96L839.2 130.13L845.11 133.49L850.73 137.04L856.09 140.8L861.19 144.76L866.05 148.94L870.67 153.33L875.06 157.95L879.24 162.81L883.2 167.91L886.96 173.27L890.51 178.89L893.87 184.8L897.04 191L900.01 197.52L902.8 204.37L905.41 211.59L907.84 219.2L910.1 227.24L912.17 235.75L914.08 244.8L915.81 254.43L917.38 264.75L918.77 275.86L920 287.92L921.07 301.14L921.96 315.83L922.7 332.48L923.27 351.92L923.67 375.84L923.92 408.79L924 512Z" fill="white"/>
</mask>
<g mask="url(#mask0_16_2)">
<path d="M924 512L923.92 615.21L923.67 648.16L923.27 672.08L922.7 691.52L921.96 708.17L921.07 722.86L920 736.08L918.77 748.14L917.38 759.25L915.81 769.57L914.08 779.2L912.17 788.25L910.1 796.76L907.84 804.8L905.41 812.41L902.8 819.63L900.01 826.48L897.04 833L893.87 839.2L890.51 845.11L886.96 850.73L883.2 856.09L879.24 861.19L875.06 866.05L870.67 870.67L866.05 875.06L861.19 879.24L856.09 883.2L850.73 886.96L845.11 890.51L839.2 893.87L833 897.04L826.48 900.01L819.63 902.8L812.41 905.41L804.8 907.84L796.76 910.1L788.25 912.17L779.2 914.08L769.57 915.81L759.25 917.38L748.14 918.77L736.08 920L722.86 921.07L708.17 921.96L691.52 922.7L672.08 923.27L648.16 923.67L615.21 923.92L512 924L408.79 923.92L375.84 923.67L351.92 923.27L332.48 922.7L315.83 921.96L301.14 921.07L287.92 920L275.86 918.77L264.75 917.38L254.43 915.81L244.8 914.08L235.75 912.17L227.24 910.1L219.2 907.84L211.59 905.41L204.37 902.8L197.52 900.01L191 897.04L184.8 893.87L178.89 890.51L173.27 886.96L167.91 883.2L162.81 879.24L157.95 875.06L153.33 870.67L148.94 866.05L144.76 861.19L140.8 856.09L137.04 850.73L133.49 845.11L130.13 839.2L126.96 833L123.99 826.48L121.2 819.63L118.59 812.41L116.16 804.8L113.9 796.76L111.83 788.25L109.92 779.2L108.19 769.57L106.62 759.25L105.23 748.14L104 736.08L102.93 722.86L102.04 708.17L101.3 691.52L100.73 672.08L100.33 648.16L100.08 615.21L100 512L100.08 408.79L100.33 375.84L100.73 351.92L101.3 332.48L102.04 315.83L102.93 301.14L104 287.92L105.23 275.86L106.62 264.75L108.19 254.43L109.92 244.8L111.83 235.75L113.9 227.24L116.16 219.2L118.59 211.59L121.2 204.37L123.99 197.52L126.96 191L130.13 184.8L133.49 178.89L137.04 173.27L140.8 167.91L144.76 162.81L148.94 157.95L153.33 153.33L157.95 148.94L162.81 144.76L167.91 140.8L173.27 137.04L178.89 133.49L184.8 130.13L191 126.96L197.52 123.99L204.37 121.2L211.59 118.59L219.2 116.16L227.24 113.9L235.75 111.83L244.8 109.92L254.43 108.19L264.75 106.62L275.86 105.23L287.92 104L301.14 102.93L315.83 102.04L332.48 101.3L351.92 100.73L375.84 100.33L408.79 100.08L512 100L615.21 100.08L648.16 100.33L672.08 100.73L691.52 101.3L708.17 102.04L722.86 102.93L736.08 104L748.14 105.23L759.25 106.62L769.57 108.19L779.2 109.92L788.25 111.83L796.76 113.9L804.8 116.16L812.41 118.59L819.63 121.2L826.48 123.99L833 126.96L839.2 130.13L845.11 133.49L850.73 137.04L856.09 140.8L861.19 144.76L866.05 148.94L870.67 153.33L875.06 157.95L879.24 162.81L883.2 167.91L886.96 173.27L890.51 178.89L893.87 184.8L897.04 191L900.01 197.52L902.8 204.37L905.41 211.59L907.84 219.2L910.1 227.24L912.17 235.75L914.08 244.8L915.81 254.43L917.38 264.75L918.77 275.86L920 287.92L921.07 301.14L921.96 315.83L922.7 332.48L923.27 351.92L923.67 375.84L923.92 408.79L924 512Z" fill="url(#paint0_linear_16_2)"/>
<g filter="url(#filter0_f_16_2)">
<path d="M350 700C559.868 700 730 529.868 730 320C730 110.132 559.868 -60 350 -60C140.132 -60 -30 110.132 -30 320C-30 529.868 140.132 700 350 700Z" fill="#3D5AA0" fill-opacity="0.85"/>
<path d="M690 830C888.823 830 1050 668.823 1050 470C1050 271.177 888.823 110 690 110C491.177 110 330 271.177 330 470C330 668.823 491.177 830 690 830Z" fill="#2A93FF" fill-opacity="0.7"/>
<path d="M540 1160C738.823 1160 900 998.823 900 800C900 601.177 738.823 440 540 440C341.177 440 180 601.177 180 800C180 998.823 341.177 1160 540 1160Z" fill="#4A5570" fill-opacity="0.8"/>
</g>
<path d="M1024 0H0V1024H1024V0Z" fill="white" fill-opacity="0.1"/>
<g filter="url(#filter1_f_16_2)">
<path d="M-120 120L620 -40L760 250L20 470L-120 120Z" fill="white" fill-opacity="0.22"/>
</g>
<path d="M1024 0H0V1024H1024V0Z" fill="url(#paint1_radial_16_2)"/>
<path d="M1024 0H0V1024H1024V0Z" fill="url(#paint2_linear_16_2)"/>
</g>
<path d="M912 512L911.92 612.21L911.68 644.2L911.29 667.42L910.74 686.3L910.02 702.46L909.15 716.72L908.12 729.55L906.93 741.26L905.57 752.05L904.05 762.07L902.37 771.42L900.52 780.2L898.5 788.47L896.31 796.27L893.96 803.66L891.42 810.67L888.71 817.32L885.82 823.65L882.75 829.67L879.49 835.41L876.04 840.87L872.39 846.07L868.54 851.02L864.49 855.73L860.22 860.22L855.73 864.49L851.02 868.54L846.07 872.39L840.87 876.04L835.41 879.49L829.67 882.75L823.65 885.82L817.32 888.71L810.67 891.42L803.66 893.96L796.27 896.31L788.47 898.5L780.2 900.52L771.42 902.37L762.07 904.05L752.05 905.57L741.26 906.93L729.55 908.12L716.72 909.15L702.46 910.02L686.3 910.74L667.42 911.29L644.2 911.68L612.21 911.92L512 912L411.79 911.92L379.8 911.68L356.58 911.29L337.7 910.74L321.54 910.02L307.28 909.15L294.45 908.12L282.74 906.93L271.95 905.57L261.93 904.05L252.58 902.37L243.8 900.52L235.53 898.5L227.73 896.31L220.34 893.96L213.33 891.42L206.68 888.71L200.35 885.82L194.33 882.75L188.59 879.49L183.13 876.04L177.93 872.39L172.98 868.54L168.27 864.49L163.78 860.22L159.51 855.73L155.46 851.02L151.61 846.07L147.96 840.87L144.51 835.41L141.25 829.67L138.18 823.65L135.29 817.32L132.58 810.67L130.04 803.66L127.69 796.27L125.5 788.47L123.48 780.2L121.63 771.42L119.95 762.07L118.43 752.05L117.07 741.26L115.88 729.55L114.85 716.72L113.98 702.46L113.26 686.3L112.71 667.42L112.32 644.2L112.08 612.21L112 512L112.08 411.79L112.32 379.8L112.71 356.58L113.26 337.7L113.98 321.54L114.85 307.28L115.88 294.45L117.07 282.74L118.43 271.95L119.95 261.93L121.63 252.58L123.48 243.8L125.5 235.53L127.69 227.73L130.04 220.34L132.58 213.33L135.29 206.68L138.18 200.35L141.25 194.33L144.51 188.59L147.96 183.13L151.61 177.93L155.46 172.98L159.51 168.27L163.78 163.78L168.27 159.51L172.98 155.46L177.93 151.61L183.13 147.96L188.59 144.51L194.33 141.25L200.35 138.18L206.68 135.29L213.33 132.58L220.34 130.04L227.73 127.69L235.53 125.5L243.8 123.48L252.58 121.63L261.93 119.95L271.95 118.43L282.74 117.07L294.45 115.88L307.28 114.85L321.54 113.98L337.7 113.26L356.58 112.71L379.8 112.32L411.79 112.08L512 112L612.21 112.08L644.2 112.32L667.42 112.71L686.3 113.26L702.46 113.98L716.72 114.85L729.55 115.88L741.26 117.07L752.05 118.43L762.07 119.95L771.42 121.63L780.2 123.48L788.47 125.5L796.27 127.69L803.66 130.04L810.67 132.58L817.32 135.29L823.65 138.18L829.67 141.25L835.41 144.51L840.87 147.96L846.07 151.61L851.02 155.46L855.73 159.51L860.22 163.78L864.49 168.27L868.54 172.98L872.39 177.93L876.04 183.13L879.49 188.59L882.75 194.33L885.82 200.35L888.71 206.68L891.42 213.33L893.96 220.34L896.31 227.73L898.5 235.53L900.52 243.8L902.37 252.58L904.05 261.93L905.57 271.95L906.93 282.74L908.12 294.45L909.15 307.28L910.02 321.54L910.74 337.7L911.29 356.58L911.68 379.8L911.92 411.79L912 512Z" stroke="url(#paint3_linear_16_2)" stroke-width="6"/>
<path d="M924 512L923.92 615.21L923.67 648.16L923.27 672.08L922.7 691.52L921.96 708.17L921.07 722.86L920 736.08L918.77 748.14L917.38 759.25L915.81 769.57L914.08 779.2L912.17 788.25L910.1 796.76L907.84 804.8L905.41 812.41L902.8 819.63L900.01 826.48L897.04 833L893.87 839.2L890.51 845.11L886.96 850.73L883.2 856.09L879.24 861.19L875.06 866.05L870.67 870.67L866.05 875.06L861.19 879.24L856.09 883.2L850.73 886.96L845.11 890.51L839.2 893.87L833 897.04L826.48 900.01L819.63 902.8L812.41 905.41L804.8 907.84L796.76 910.1L788.25 912.17L779.2 914.08L769.57 915.81L759.25 917.38L748.14 918.77L736.08 920L722.86 921.07L708.17 921.96L691.52 922.7L672.08 923.27L648.16 923.67L615.21 923.92L512 924L408.79 923.92L375.84 923.67L351.92 923.27L332.48 922.7L315.83 921.96L301.14 921.07L287.92 920L275.86 918.77L264.75 917.38L254.43 915.81L244.8 914.08L235.75 912.17L227.24 910.1L219.2 907.84L211.59 905.41L204.37 902.8L197.52 900.01L191 897.04L184.8 893.87L178.89 890.51L173.27 886.96L167.91 883.2L162.81 879.24L157.95 875.06L153.33 870.67L148.94 866.05L144.76 861.19L140.8 856.09L137.04 850.73L133.49 845.11L130.13 839.2L126.96 833L123.99 826.48L121.2 819.63L118.59 812.41L116.16 804.8L113.9 796.76L111.83 788.25L109.92 779.2L108.19 769.57L106.62 759.25L105.23 748.14L104 736.08L102.93 722.86L102.04 708.17L101.3 691.52L100.73 672.08L100.33 648.16L100.08 615.21L100 512L100.08 408.79L100.33 375.84L100.73 351.92L101.3 332.48L102.04 315.83L102.93 301.14L104 287.92L105.23 275.86L106.62 264.75L108.19 254.43L109.92 244.8L111.83 235.75L113.9 227.24L116.16 219.2L118.59 211.59L121.2 204.37L123.99 197.52L126.96 191L130.13 184.8L133.49 178.89L137.04 173.27L140.8 167.91L144.76 162.81L148.94 157.95L153.33 153.33L157.95 148.94L162.81 144.76L167.91 140.8L173.27 137.04L178.89 133.49L184.8 130.13L191 126.96L197.52 123.99L204.37 121.2L211.59 118.59L219.2 116.16L227.24 113.9L235.75 111.83L244.8 109.92L254.43 108.19L264.75 106.62L275.86 105.23L287.92 104L301.14 102.93L315.83 102.04L332.48 101.3L351.92 100.73L375.84 100.33L408.79 100.08L512 100L615.21 100.08L648.16 100.33L672.08 100.73L691.52 101.3L708.17 102.04L722.86 102.93L736.08 104L748.14 105.23L759.25 106.62L769.57 108.19L779.2 109.92L788.25 111.83L796.76 113.9L804.8 116.16L812.41 118.59L819.63 121.2L826.48 123.99L833 126.96L839.2 130.13L845.11 133.49L850.73 137.04L856.09 140.8L861.19 144.76L866.05 148.94L870.67 153.33L875.06 157.95L879.24 162.81L883.2 167.91L886.96 173.27L890.51 178.89L893.87 184.8L897.04 191L900.01 197.52L902.8 204.37L905.41 211.59L907.84 219.2L910.1 227.24L912.17 235.75L914.08 244.8L915.81 254.43L917.38 264.75L918.77 275.86L920 287.92L921.07 301.14L921.96 315.83L922.7 332.48L923.27 351.92L923.67 375.84L923.92 408.79L924 512Z" stroke="#001233" stroke-opacity="0.1" stroke-width="2"/>
<path d="M388 322L726 512L388 702L520 512L388 322Z" fill="url(#paint4_linear_16_2)" stroke="url(#paint5_linear_16_2)" stroke-width="54" stroke-linejoin="round"/>
<path d="M593 742H463C450.297 742 440 752.297 440 765C440 777.703 450.297 788 463 788H593C605.703 788 616 777.703 616 765C616 752.297 605.703 742 593 742Z" fill="#2F9BFF"/>
<defs>
<filter id="filter0_f_16_2" x="-170" y="-200" width="1360" height="1500" filterUnits="userSpaceOnUse" color-interpolation-filters="sRGB">
<feFlood flood-opacity="0" result="BackgroundImageFix"/>
<feBlend mode="normal" in="SourceGraphic" in2="BackgroundImageFix" result="shape"/>
<feGaussianBlur stdDeviation="70" result="effect1_foregroundBlur_16_2"/>
</filter>
<filter id="filter1_f_16_2" x="-188" y="-108" width="1016" height="646" filterUnits="userSpaceOnUse" color-interpolation-filters="sRGB">
<feFlood flood-opacity="0" result="BackgroundImageFix"/>
<feBlend mode="normal" in="SourceGraphic" in2="BackgroundImageFix" result="shape"/>
<feGaussianBlur stdDeviation="34" result="effect1_foregroundBlur_16_2"/>
</filter>
<linearGradient id="paint0_linear_16_2" x1="100" y1="100" x2="100" y2="924" gradientUnits="userSpaceOnUse">
<stop stop-color="#5A6678"/>
<stop offset="1" stop-color="#161A22"/>
</linearGradient>
<radialGradient id="paint1_radial_16_2" cx="0" cy="0" r="1" gradientUnits="userSpaceOnUse" gradientTransform="translate(430.08 20.48) scale(870.4)">
<stop stop-color="white" stop-opacity="0.85"/>
<stop offset="0.5" stop-color="white" stop-opacity="0.12"/>
<stop offset="1" stop-color="white" stop-opacity="0"/>
</radialGradient>
<linearGradient id="paint2_linear_16_2" x1="0" y1="0" x2="0" y2="1024" gradientUnits="userSpaceOnUse">
<stop offset="0.55" stop-color="#001233" stop-opacity="0"/>
<stop offset="1" stop-color="#001233" stop-opacity="0.34"/>
</linearGradient>
<linearGradient id="paint3_linear_16_2" x1="112" y1="112" x2="112" y2="912" gradientUnits="userSpaceOnUse">
<stop stop-color="white" stop-opacity="0.95"/>
<stop offset="0.35" stop-color="white" stop-opacity="0.15"/>
<stop offset="0.7" stop-color="white" stop-opacity="0"/>
<stop offset="1" stop-color="#001233" stop-opacity="0.3"/>
</linearGradient>
<linearGradient id="paint4_linear_16_2" x1="388" y1="322" x2="388" y2="702" gradientUnits="userSpaceOnUse">
<stop stop-color="white"/>
<stop offset="1" stop-color="#EAF2FF"/>
</linearGradient>
<linearGradient id="paint5_linear_16_2" x1="388" y1="322" x2="388" y2="702" gradientUnits="userSpaceOnUse">
<stop stop-color="white"/>
<stop offset="1" stop-color="#EAF2FF"/>
</linearGradient>
</defs>
</svg>
